<svg xmlns="http://www.w3.org/2000/svg" version="1.1" xmlns:xlink="http://www.w3.org/1999/xlink" width="1500" height="190" viewBox="0 0 1500 190"><svg xml:space="preserve" width="1500" height="190" data-version="2" data-id="lg_xk5HzyZo8l3OCvTN23" viewBox="0 0 569 190" x="0" y="0"><rect width="100%" height="100%" fill="transparent"></rect><circle r="99.82" fill="#94c3d2" transform="translate(98.67 95)scale(.9273)"></circle><path fill="#010c07" d="M137.35 143.461q1.09 0 2.17-2.17 1.09-2.17 1.09-7.13v-74.4q0-4.96-1.09-7.05-1.08-2.1-2.17-2.25h87.27v3.1l3.1 14.88q-3.88-1.71-13.64-3.64-9.77-1.94-23.56-1.94h-26.2q-4.65 0-5.5.7-.85.69-.85 3.95v17.67q0 3.41.85 4.03.85.62 5.35.62h25.57q8.99 0 14.5-1.01 5.5-1.01 7.2-2.09-.62 2.01-1.39 4.8-.78 2.79-1.24 5.58-.47 2.79-.47 5.12h-44.17q-4.5 0-5.35.54-.85.54-.85 4.11v19.22q0 3.56.77 4.18.78.62 5.43.62h45.1q8.99 0 14.5-2.09 5.5-2.09 7.2-4.11l-3.1 13.95v4.81Z"></path><rect width="93.62" height="93" x="-46.81" y="-46.5" fill="none" rx="0" ry="0" transform="translate(184.66 97.46)"></rect><path fill="#010c07" d="M231.9 112.461q1.09-1.71 2.1-4.81 1-3.1 1-6.04h30.38q7.91 0 11.55-.54 3.64-.55 3.95-1.01-1.08 1.55-2.09 4.57-1.01 3.02-1.01 6.28H250.5q-8.52 0-13.02.54-4.49.54-5.58 1.01"></path><rect width="48.98" height="12.4" x="-24.49" y="-6.2" fill="none" rx="0" ry="0" transform="translate(256.89 106.76)"></rect><path fill="#010c07" d="M324.13 145.011q-15.5 0-24.26-4.96-8.76-4.96-12.24-13.49-3.49-8.52-3.49-19.22 0-10.85 3.64-19.37 3.64-8.53 12.32-13.56 8.68-5.04 24.03-5.04 15.34 0 24.02 5.04 8.68 5.03 12.33 13.56 3.64 8.52 3.64 19.37 0 10.7-3.49 19.22-3.49 8.53-12.17 13.49-8.68 4.96-24.33 4.96m0-11.01q9.61 0 14.88-3.1 5.27-3.1 7.28-9.06 2.02-5.97 2.02-14.5 0-8.52-2.09-14.57-2.1-6.04-7.29-9.3-5.19-3.25-14.8-3.25-9.46 0-14.73 3.33t-7.36 9.46q-2.09 6.12-2.09 14.49 0 8.21 2.01 14.18 2.02 5.97 7.29 9.15 5.27 3.17 14.88 3.17"></path><rect width="79.98" height="75.64" x="-39.99" y="-37.82" fill="none" rx="0" ry="0" transform="translate(324.63 107.7)"></rect><path fill="#010c07" d="M369.85 143.461q1.09 0 2.1-2.17 1-2.17 1-7.13v-52.39q0-4.96-1-7.05-1.01-2.1-2.1-2.25 6.82 0 11.86-1.01 5.04-1.01 7.05-2.09v9.45l-.31 2.02.31.31q2.33-2.95 5.2-5.58 2.86-2.64 7.51-4.42 4.65-1.78 11.94-1.78 14.41 0 22.09 8.21 7.67 8.22 7.67 25.73v30.85q0 4.96 1.01 7.13 1 2.17 2.09 2.17h-22.01q1.08 0 2.09-2.17 1.01-2.17 1.01-7.13v-30.38q0-9.15-2.33-14.26-2.32-5.12-6.43-7.21-4.11-2.09-9.53-2.09-5.74 0-10.39 2.48t-7.28 7.9q-2.64 5.43-2.64 14.57v28.99q0 4.96 1.01 7.13t2.09 2.17Zm108.66 0q1.08 0 2.09-2.17 1.01-2.17 1.01-7.13v-30.38q0-9.15-2.33-14.26-2.32-5.12-6.43-7.21-4.11-2.09-9.53-2.09-8.99 0-14.57 5.66-5.58 5.65-5.58 19.14l-6.36-15.5q.47-1.71 2.25-4.96 1.78-3.26 5.27-6.74 3.49-3.49 9.15-5.97 5.65-2.48 14.18-2.48 9.61 0 16.27 3.64 6.67 3.64 10.08 11.08 3.41 7.44 3.41 19.22v30.85q0 4.96 1.01 7.13 1 2.17 2.09 2.17Z"></path><rect width="130.67" height="74.09" x="-65.33" y="-37.05" fill="none" rx="0" ry="0" transform="translate(435.69 106.92)"></rect><path fill="#010c07" d="M537.25 145.011q-10.69 0-15.5-4.57-4.8-4.58-4.8-14.96v-43.71H503v-10.85q7.13 0 11.16-1.78 4.03-1.79 5.73-6.28 1.71-4.5 1.71-12.56h11.16v20.62h29.6q-1.08 1.55-2.09 4.57-1.01 3.02-1.01 6.28h-26.5v41.38q0 7.13 2.63 8.99 2.64 1.86 6.67 1.86 3.87 0 7.21-1.62 3.33-1.63 5.89-3.96 2.55-2.32 3.95-4.49v4.8l1.55 8.84q-1.55 1.55-4.81 3.33-3.25 1.78-7.9 2.95-4.65 1.16-10.7 1.16"></path><rect width="59.36" height="94.71" x="-29.68" y="-47.35" fill="none" rx="0" ry="0" transform="translate(533.18 98.16)"></rect></svg></svg>